<svg width="685" height="628" viewBox="0 0 685 628" fill="none" xmlns="http://www.w3.org/2000/svg">
<path d="M487.462 29.699C485.898 28.9888 484.324 28.2887 482.75 27.5988C481.562 27.0814 480.201 27.8322 479.998 29.1207C478.606 37.8767 483.674 47.5154 480.638 56.0786C479.216 60.0659 476.108 63.475 475.55 67.6551C475.194 70.3945 475.976 73.134 476.89 75.7516C480.089 84.9743 484.872 93.639 490.976 101.269C496.957 108.736 504.178 115.219 509.397 123.225C514.627 131.23 517.674 141.457 514.14 150.375C513.074 153.064 511.428 155.6 511.063 158.482C510.738 161.11 511.5 163.717 512.271 166.233C512.271 166.233 512.271 166.24 512.271 166.254C512.403 166.609 517.552 180.519 521.635 196.864C523.513 204.423 522.518 203.743 523.889 208.471C525.768 214.904 529.424 222.28 543.997 237.032C559.778 253.012 575.6 264.69 581.195 268.718C586.974 272.878 589.797 274.603 594.935 278.996C603.243 286.078 607.934 291.871 615.226 300.434C620.517 306.664 628.204 315.572 638.004 326.398C638.146 326.55 638.329 326.672 638.532 326.733C652.039 331.319 655.999 336.3 657.005 340.146C657.34 341.465 657.827 343.788 659.523 346.467C661.28 349.287 664.52 350.809 667.648 352.067C671.496 353.609 675.437 354.969 679.428 356.115C680.098 356.318 680.809 355.882 680.941 355.192C705.182 235.185 618.344 89.2356 487.462 29.6889V29.699ZM671.649 377.919C652.069 345.99 621.644 321.447 594.387 295.168C582.881 284.089 571.822 272.533 560.783 260.987C551.298 251.084 541.803 241.192 532.328 231.289C527.911 226.673 523.432 221.986 520.294 216.436C518.669 213.575 517.43 210.521 516.465 207.365C516.11 206.229 514.475 206.269 514.17 207.426C511.885 216.05 504.391 224.106 498.704 231.716C491.565 241.283 486.781 252.302 480.709 262.529C466.329 286.757 444.19 306.765 417.786 317.114C407.915 320.97 397.527 323.506 388.021 328.194C363.689 340.196 347.786 365.024 323.565 377.28C317.432 380.385 310.709 382.708 305.499 387.111C305.083 387.456 304.971 388.035 305.194 388.522C321.504 423.028 337.346 460.802 377.46 486.329C442.819 527.917 545.571 519.8 609.61 469.436C646.321 440.56 663.738 402.99 671.771 378.893C671.872 378.558 671.832 378.203 671.649 377.909V377.919ZM503.507 178.439C498.978 173.823 493.514 172.169 490.529 171.53C490.407 171.509 490.316 171.469 490.214 171.408C487.005 169.511 482.293 166.731 476.667 163.251C460.581 153.358 452.528 148.356 451.299 145.728C444.393 130.854 461.739 102.689 467.507 95.3536C468.197 94.4709 469.974 92.1475 470.675 88.7588C471.813 83.2089 467.964 78.0446 465.09 73.1644C459.352 63.4547 457.098 50.4577 463.668 41.1944C466.044 37.8564 469.396 35.2184 471.467 31.6876C472.249 30.3585 472.787 28.8062 472.97 27.264C473.224 25.1536 472.005 23.1549 470.025 22.3838C367.924 -17.0029 249.249 -3.38699 158.887 55.1654C32.8494 136.861 -28.9862 300.11 13.1684 411.269C18.7031 425.869 41.3189 485.466 99.1636 505.352C138.739 518.948 192.41 513.124 223.749 484.766C222.764 481.986 221.992 479.105 220.56 476.558C217.696 471.475 212.497 468.239 209.735 463.115C206.891 457.869 207.023 451.356 208.496 445.603C209.968 439.85 212.659 434.574 214.772 429.065C215.279 427.746 215.767 426.356 215.696 424.925C215.625 423.698 215.158 422.521 214.68 421.395C211.816 414.688 208.211 408.337 203.956 402.513C201.956 399.773 199.803 397.136 198.229 394.092C196.36 390.51 195.385 386.503 194.431 382.556C192.978 376.59 191.262 370.553 189.8 364.506C178.588 364.841 167.417 368.118 157.983 374.906C140.435 387.527 135.885 407.18 134.667 415.398C134.504 416.484 133.092 416.798 132.493 415.885C127.416 408.164 115.422 386.371 122.358 359.717C130.411 328.731 157.719 315.542 163.183 312.894C194.004 298.009 225.526 307.963 235.052 310.966C265.873 320.696 282.782 340.866 296.166 364.942C296.451 365.45 297.06 365.693 297.619 365.5C301.325 364.263 304.555 363.076 307.185 361.888C334.371 349.531 360.825 335.59 386.376 320.148C392.317 316.546 398.319 312.792 402.848 307.526C405.905 303.965 408.19 299.775 411.48 296.416C424.428 283.105 447.785 286.352 462.226 274.643C471.823 266.892 475.479 254.229 482.252 243.972C492.336 228.712 510.423 216.486 510.646 198.315C510.677 195.565 510.707 185.785 503.517 178.459L503.507 178.439ZM238.941 383.996C229.68 372.826 215.259 365.206 199.925 362.933C200.077 364.049 200.107 365.084 200.036 365.957C199.64 370.888 198.086 375.799 198.909 380.689C199.945 386.929 204.586 391.718 207.399 397.328C209.349 401.224 210.466 405.658 213.157 409.027C215.848 412.385 221.007 414.181 224.003 411.218C227.354 418.168 223.668 426.397 220.052 433.093C217.128 438.501 214.213 443.908 211.288 449.316C217.524 451.559 224.734 450.25 229.873 445.958C231.985 444.193 233.752 441.981 235.935 440.317C239.551 437.567 243.887 436.583 248.375 436.36C252.59 418.858 251.645 399.337 238.941 384.007V383.996ZM509.6 177.293C505.417 157.822 499.994 138.586 493.413 119.785C492.083 116.041 490.184 111.78 486.517 110.847C485.238 110.512 483.826 110.613 482.77 109.761C481.968 109.132 481.562 108.097 481.216 107.103C479.5 102.425 477.896 97.6669 476.098 93.0302C475.773 92.1982 474.676 92.0055 474.087 92.6751C472.188 94.8159 469.578 95.8204 468.36 99.3613C464.359 110.583 460.804 122.24 460.611 134.355C460.55 138.22 460.885 142.299 462.845 145.657C466.562 152.059 474.463 153.673 481.044 156.483C491.483 160.937 499.78 169.511 507.519 178.317C508.331 179.241 509.854 178.49 509.6 177.282V177.293Z" fill="black"/>
<path d="M543.692 611.01C552.101 608.822 551.4 594.518 558.189 589.559C565.107 584.508 575.302 592.557 591.397 598.236C617.513 607.444 649.59 607.065 670.124 592.883C677.862 587.537 685.133 579.427 683.853 577.421C682.361 575.096 669.905 581.646 658.082 586.295C612.073 604.4 562.53 575.263 552.312 591.989C549.117 597.221 549.486 606.414 544.619 607.216C543.82 607.345 541.009 607.497 539.683 605.793C539.683 605.793 539.043 605.043 538.99 603.938C538.741 598.683 544.212 595.313 548.635 592.489C556.818 587.249 563.569 580.063 570.125 572.87C572.114 570.682 574.149 568.41 575.121 565.608C576.093 562.814 575.739 559.331 573.501 557.408C571.504 555.689 568.49 555.628 566.048 556.613C563.615 557.59 561.633 559.445 559.794 561.33C553.811 567.463 548.394 574.468 544.114 581.896C539.623 589.672 538.41 591.618 534.868 594.927C534.062 595.677 530.912 598.554 526.075 601.06C516.942 605.793 496.869 611.79 493.681 607.224C493.206 606.542 493.063 605.763 493.063 605.763C492.792 602.885 494.894 600.917 496.853 599.183C499.619 596.744 509.588 590.467 509.226 586.636C508.842 582.645 502.068 581.116 498.971 582.115C498.315 582.327 497.705 582.653 497.125 583.016C496.258 583.554 492.98 585.553 490.494 590.225C489.04 592.951 489.333 593.806 488.452 595.669C485.144 602.711 474.542 604.15 466.638 605.225C458.552 606.323 456.97 604.831 456.428 603.991C455.32 602.279 456.269 599.849 456.337 599.705C457.49 597.274 460.014 596.017 462.456 595.086C466.63 593.496 470.797 591.573 472.5 587.082C472.922 585.969 473.058 584.705 472.613 583.599C472.199 582.562 471.332 581.767 470.39 581.169C469.516 580.586 468.205 579.897 466.577 579.836C462.282 579.669 459.306 583.963 455.606 588.355C455.606 588.355 442.194 604.248 429.919 605.853C429.527 605.906 428.419 606.05 428.028 605.482C427.802 605.157 427.809 604.612 428.239 603.764C429.587 601.113 430.853 598.403 432.021 595.669C432.511 594.518 433.008 592.307 431.961 591.209C431.125 590.323 429.595 590.543 428.789 590.656C423.657 591.391 418.473 597.024 417.561 598.206C417.411 598.403 416.778 599.22 416.175 599.137C416.032 599.114 415.889 599.046 415.753 598.917C413.99 597.252 415.858 595.578 414.932 593.746C413.907 591.739 410.637 591.557 408.73 591.959C406.372 592.451 404.367 593.943 402.514 595.397C400.894 596.669 399.688 597.221 398.822 596.865C397.85 596.464 398.076 595.063 397.277 593.534C397.277 593.534 396.184 591.451 392.447 589.983C385.047 587.075 366.255 602.098 355.412 596.956C350.898 594.813 352.473 591.421 346.52 586.787C339.287 581.154 330.591 581.222 322.785 581.388C302.734 581.812 285.983 589.854 283.127 585.061C282.396 583.827 282.736 582.04 281.078 580.745C280.701 580.449 279.488 579.775 274.899 580.094C269.67 580.465 266.731 582.274 265.623 580.949C265.284 580.548 265.254 580.01 265.292 579.465C265.91 571.469 272.623 565.411 272.623 565.411C281.839 557.097 288.44 559.293 303.676 549.912C305.906 548.541 308.167 546.64 308.702 544.172C309.425 540.84 303.947 537.085 299.569 537.001C294.068 536.903 289.871 542.476 288.394 544.354C272.081 565.222 226.689 599.538 216.969 592.883C214.708 591.33 215.364 588.233 211.521 585.735C206.97 582.774 201.251 584.008 198.5 584.667C175.368 590.179 152.084 604.824 144.534 598.683C139.591 594.662 144.029 583.872 138.498 581.297C135.891 580.086 132.824 581.441 128.341 583.773C124.182 585.932 118.266 589.68 112.253 596.199C113.791 588.498 109.676 580.472 103.565 575.573C97.4469 570.682 89.6556 568.433 81.9547 567.077C61.3085 563.435 39.4114 565.563 20.5887 574.846C14.6661 577.761 -1.11997 589.49 0.0630423 602.476C1.53239 618.597 29.1034 629.652 50.2093 627.797C58.6335 627.055 67.9545 624.049 67.9017 621.27C67.7962 615.455 26.7675 618.665 19.7297 600.848C16.3389 592.269 22.4499 582.903 23.3541 581.562C39.6902 557.317 97.7031 567.312 101.787 581.979C102.435 584.319 102.729 588.975 101.636 592.587C100.242 597.214 98.8485 601.84 97.4545 606.474C96.4975 609.662 95.5179 609.238 96.8064 612.509C97.4469 614.122 98.7053 615.455 100.363 615.939C103.234 616.772 106.308 614.001 108.222 612.146C120.926 599.856 123.014 593.89 127.58 593.602C133.329 593.238 133.804 602.597 141.919 605.361C154.759 609.723 170.289 591.959 174.132 595.616C176.475 597.85 170.899 604.695 173.665 607.807C176.875 611.419 189.134 607.224 197.483 603.15C203.33 600.296 207.06 596.676 210.331 598.251C212.998 599.538 212.214 602.666 214.256 603.907C221.317 608.201 245.723 580.078 248.888 582.638C250.191 583.69 247.064 588.771 249.234 591.542C250.945 593.738 254.464 593.617 255.149 593.594C261.615 593.314 263.528 587.082 270.996 586.303C271.825 586.212 274.462 585.939 275.08 587.12C276.007 588.885 271.749 592.807 271.064 593.428C262.541 601.136 253.755 598.35 248.699 605.596C248.051 606.52 246.582 608.632 247.305 610.147C248.579 612.82 256.016 612.305 261.095 610.684C270.34 607.739 272.789 600.765 278.862 595.116C294.649 580.434 324.156 584.622 324.887 588.249C325.128 589.422 322.566 591.573 311.098 595.851C308.174 596.782 301.822 598.796 300.503 603.135C299.976 604.884 300.179 607.292 301.551 608.776C302.93 610.268 305.175 610.51 309.048 610.056C316.93 609.132 322.8 606.338 323.47 606.012C329.393 603.127 333.522 599.894 341.864 596.631C343.31 596.063 345.797 595.147 347.1 596.252C348.849 597.744 346.52 601.181 348.253 604.203C349.934 607.125 354.379 607.595 356.452 607.762C373.006 609.14 383.864 588.279 387.323 591.868C387.617 592.171 387.768 592.86 387.926 594.253C388.596 600.273 385.643 602.809 386.833 605.74C387.692 607.868 390.367 609.246 392.5 609.314C396.621 609.443 400.984 604.914 403.004 601.469C403.584 600.47 404.691 598.35 407.035 597.184C407.781 596.812 408.76 596.328 409.544 596.714C411.134 597.502 411.194 601.537 410.117 604.657C409.054 607.731 407.231 608.95 407.818 609.912C408.361 610.798 410.448 610.646 411.827 610.139C412.935 609.723 413.636 609.049 414.012 608.685C417.893 604.854 419.581 602.711 421.434 600.841C422.361 599.902 423.431 599.107 424.501 598.319C425.066 597.903 425.835 598.403 425.684 599.092C425.428 600.235 425.179 601.371 424.953 602.522C424.456 605.081 424.501 607.981 426.197 609.284C427.071 609.957 428.103 609.98 428.517 609.988C435.163 610.041 449.586 594.344 452.328 596.199C454.024 597.343 449.797 603.62 452.57 607.375C454.649 610.192 459.419 609.897 462.689 609.73C473.706 609.178 477.729 602.666 484.873 604.914C486.591 605.46 488.791 606.603 490.479 607.481C494.736 609.7 496.025 611.298 497.554 611.805C508.051 615.288 521.569 601.227 529.405 603.877C533.565 605.286 535.154 607.239 535.154 607.239C537.144 609.003 537.935 610.578 540.067 611.154C540.776 611.267 542.14 611.411 543.699 611.01H543.692ZM560.096 569.364C562.386 566.494 566.568 562.208 568 563.079C568.897 563.624 568.317 566.063 568.166 566.714C567.947 567.638 567.073 570.772 559.116 576.875C556.569 578.829 555.288 579.798 554.866 579.465C553.985 578.768 556.841 573.445 560.096 569.364ZM551.317 582.274C551.506 581.805 551.822 581.381 552.139 580.957C552.395 580.624 552.87 580.563 553.194 580.813C553.194 580.813 553.201 580.813 553.209 580.82C553.555 581.085 553.6 581.6 553.314 581.926C553.073 582.206 552.832 582.471 552.606 582.729C552.274 583.107 551.664 583.062 551.4 582.623C551.317 582.479 551.272 582.358 551.31 582.267L551.317 582.274ZM496.944 588.71C498.142 587.514 500.244 585.409 502.188 586.106C502.904 586.363 503.756 587.06 503.801 587.893C503.869 589.089 502.234 590.058 500.772 590.906C498.745 592.072 494.924 593.753 494.382 592.754C493.862 591.807 496.575 589.089 496.944 588.71ZM465.884 583.645C466.758 583.819 467.369 585.03 467.331 585.977C467.278 587.317 465.937 588.203 464.098 589.422C462.636 590.384 460.836 591.573 460.346 591.156C459.374 590.331 463.526 583.183 465.877 583.645H465.884ZM190.189 599.879C183.686 603.839 180.394 605.793 178.427 604.528C178.276 604.43 177.236 603.741 177.138 602.613C176.829 599.236 185.495 598.509 196.142 591.421C197.883 590.263 201.658 587.62 203.127 588.779C203.459 589.044 203.572 589.422 203.594 589.505C204.069 591.33 200.301 593.731 190.189 599.887V599.879ZM332.58 595.571C328.896 598.198 322.898 600.25 322.898 600.25C319.205 600.833 315.837 602.408 312.175 602.908C311.361 603.014 310.857 603.022 310.593 602.34C310.502 602.105 310.894 601.454 311.203 601.325C317.811 598.554 324.39 595.715 331.367 593.92C332.648 593.594 332.49 594.2 332.678 594.935C332.739 595.154 332.761 595.434 332.58 595.571Z" fill="black"/>
</svg>
